name C:/MyDriveSym/Projects/mobilecap/Data\Session20210825_0001\mocap\ForceDataProcessed\DJ3_forces.mot
datacolumns 28
datarows 18
range 2.03200000 2.04050000
endheader 
time	R_ground_force_vx	R_ground_force_vy	R_ground_force_vz	R_ground_force_px	R_ground_force_py	R_ground_force_pz	R_ground_torque_x	R_ground_torque_y	R_ground_torque_z	L_ground_force_vx	L_ground_force_vy	L_ground_force_vz	L_ground_force_px	L_ground_force_py	L_ground_force_pz	L_ground_torque_x	L_ground_torque_y	L_ground_torque_z	3_ground_force_vx	3_ground_force_vy	3_ground_force_vz	3_ground_force_px	3_ground_force_py	3_ground_force_pz	3_ground_torque_x	3_ground_torque_y	3_ground_torque_z	
          2.03200000	         47.80523300	        442.25655800	        -66.69370500	         -0.26584200	          0.00600000	         -0.43005100	          0.00000000	         -7.66584900	          0.00000000	         16.04807200	        472.95826700	         69.85086200	         -0.24617900	          0.00600000	         -0.74303100	          0.00000000	          7.37872000	          0.00000000	          0.00000000	          0.00000000	          0.00000000	          0.00000000	          0.00000000	          0.00000000	          0.00000000	          0.00000000	          0.00000000	
          2.03250000	         47.18622800	        443.08822900	        -67.02406100	         -0.26541100	          0.00600000	         -0.42990200	          0.00000000	         -7.63050300	          0.00000000	         15.65810200	        473.57951300	         70.24253200	         -0.24595300	          0.00600000	         -0.74314300	          0.00000000	          7.37449800	          0.00000000	          0.00000000	          0.00000000	          0.00000000	          0.00000000	          0.00000000	          0.00000000	          0.00000000	          0.00000000	          0.00000000	
          2.03300000	         46.54477300	        443.91438500	        -67.35960300	         -0.26496900	          0.00600000	         -0.42974800	          0.00000000	         -7.59434300	          0.00000000	         15.26080800	        474.19971400	         70.63794400	         -0.24572000	          0.00600000	         -0.74325600	          0.00000000	          7.36935400	          0.00000000	          0.00000000	          0.00000000	          0.00000000	          0.00000000	          0.00000000	          0.00000000	          0.00000000	          0.00000000	          0.00000000	
          2.03350000	         45.88175800	        444.73486600	        -67.70056400	         -0.26451600	          0.00600000	         -0.42958900	          0.00000000	         -7.55737000	          0.00000000	         14.85683200	        474.81968600	         71.03707900	         -0.24548200	          0.00600000	         -0.74337100	          0.00000000	          7.36329400	          0.00000000	          0.00000000	          0.00000000	          0.00000000	          0.00000000	          0.00000000	          0.00000000	          0.00000000	          0.00000000	          0.00000000	
          2.03400000	         45.19813600	        445.54951400	        -68.04714400	         -0.26405300	          0.00600000	         -0.42942600	          0.00000000	         -7.51958100	          0.00000000	         14.44685000	        475.44019500	         71.43994300	         -0.24523800	          0.00600000	         -0.74348700	          0.00000000	          7.35632700	          0.00000000	          0.00000000	          0.00000000	          0.00000000	          0.00000000	          0.00000000	          0.00000000	          0.00000000	          0.00000000	          0.00000000	
          2.03450000	         44.49491500	        446.35817700	        -68.39949400	         -0.26358000	          0.00600000	         -0.42925800	          0.00000000	         -7.48097900	          0.00000000	         14.03155000	        476.06194700	         71.84656000	         -0.24498800	          0.00600000	         -0.74360500	          0.00000000	          7.34846300	          0.00000000	          0.00000000	          0.00000000	          0.00000000	          0.00000000	          0.00000000	          0.00000000	          0.00000000	          0.00000000	          0.00000000	
          2.03500000	         43.77315700	        447.16071900	        -68.75772000	         -0.26309700	          0.00600000	         -0.42908600	          0.00000000	         -7.44156800	          0.00000000	         13.61161900	        476.68559400	         72.25696300	         -0.24473400	          0.00600000	         -0.74372400	          0.00000000	          7.33970400	          0.00000000	          0.00000000	          0.00000000	          0.00000000	          0.00000000	          0.00000000	          0.00000000	          0.00000000	          0.00000000	          0.00000000	
          2.03550000	         43.03395600	        447.95702200	        -69.12188300	         -0.26260500	          0.00600000	         -0.42891000	          0.00000000	         -7.40135800	          0.00000000	         13.18772900	        477.31174100	         72.67118400	         -0.24447400	          0.00600000	         -0.74384400	          0.00000000	          7.33005000	          0.00000000	          0.00000000	          0.00000000	          0.00000000	          0.00000000	          0.00000000	          0.00000000	          0.00000000	          0.00000000	          0.00000000	
          2.03600000	         42.27843800	        448.74699200	        -69.49200200	         -0.26210400	          0.00600000	         -0.42873000	          0.00000000	         -7.36036200	          0.00000000	         12.76053900	        477.94093700	         73.08924100	         -0.24421000	          0.00600000	         -0.74396500	          0.00000000	          7.31949500	          0.00000000	          0.00000000	          0.00000000	          0.00000000	          0.00000000	          0.00000000	          0.00000000	          0.00000000	          0.00000000	          0.00000000	
          2.03650000	         41.50774500	        449.53056500	        -69.86805500	         -0.26159400	          0.00600000	         -0.42854500	          0.00000000	         -7.31859500	          0.00000000	         12.33069100	        478.57365000	         73.51113800	         -0.24394200	          0.00600000	         -0.74408700	          0.00000000	          7.30803000	          0.00000000	          0.00000000	          0.00000000	          0.00000000	          0.00000000	          0.00000000	          0.00000000	          0.00000000	          0.00000000	          0.00000000	
          2.03700000	         40.72302900	        450.30771700	        -70.24996700	         -0.26107700	          0.00600000	         -0.42835600	          0.00000000	         -7.27606700	          0.00000000	         11.89880500	        479.21028700	         73.93686300	         -0.24366900	          0.00600000	         -0.74421000	          0.00000000	          7.29564600	          0.00000000	          0.00000000	          0.00000000	          0.00000000	          0.00000000	          0.00000000	          0.00000000	          0.00000000	          0.00000000	          0.00000000	
          2.03750000	         39.92544200	        451.07844900	        -70.63760600	         -0.26055200	          0.00600000	         -0.42816400	          0.00000000	         -7.23278500	          0.00000000	         11.46548500	        479.85121500	         74.36640500	         -0.24339200	          0.00600000	         -0.74433400	          0.00000000	          7.28233700	          0.00000000	          0.00000000	          0.00000000	          0.00000000	          0.00000000	          0.00000000	          0.00000000	          0.00000000	          0.00000000	          0.00000000	
          2.03800000	         39.11614000	        451.84276000	        -71.03078300	         -0.26002000	          0.00600000	         -0.42796700	          0.00000000	         -7.18875100	          0.00000000	         11.03131600	        480.49676900	         74.79974900	         -0.24311200	          0.00600000	         -0.74445900	          0.00000000	          7.26811000	          0.00000000	          0.00000000	          0.00000000	          0.00000000	          0.00000000	          0.00000000	          0.00000000	          0.00000000	          0.00000000	          0.00000000	
          2.03850000	         38.29628700	        452.60062700	        -71.42925900	         -0.25948100	          0.00600000	         -0.42776800	          0.00000000	         -7.14396900	          0.00000000	         10.59685800	        481.14723400	         75.23687000	         -0.24282800	          0.00600000	         -0.74458500	          0.00000000	          7.25297200	          0.00000000	          0.00000000	          0.00000000	          0.00000000	          0.00000000	          0.00000000	          0.00000000	          0.00000000	          0.00000000	          0.00000000	
          2.03900000	         37.46705500	        453.35198600	        -71.83275000	         -0.25893600	          0.00600000	         -0.42756400	          0.00000000	         -7.09844600	          0.00000000	         10.16263600	        481.80283000	         75.67771400	         -0.24254000	          0.00600000	         -0.74471100	          0.00000000	          7.23692900	          0.00000000	          0.00000000	          0.00000000	          0.00000000	          0.00000000	          0.00000000	          0.00000000	          0.00000000	          0.00000000	          0.00000000	
          2.03950000	         36.62961300	        454.09673600	        -72.24092300	         -0.25838500	          0.00600000	         -0.42735800	          0.00000000	         -7.05219600	          0.00000000	          9.72913300	        482.46372900	         76.12219600	         -0.24224900	          0.00600000	         -0.74483900	          0.00000000	          7.21998600	          0.00000000	          0.00000000	          0.00000000	          0.00000000	          0.00000000	          0.00000000	          0.00000000	          0.00000000	          0.00000000	          0.00000000	
          2.04000000	         35.78511100	        454.83476600	        -72.65339500	         -0.25782800	          0.00600000	         -0.42714900	          0.00000000	         -7.00524200	          0.00000000	          9.29679200	        483.13007600	         76.57019400	         -0.24195500	          0.00600000	         -0.74496700	          0.00000000	          7.20213900	          0.00000000	          0.00000000	          0.00000000	          0.00000000	          0.00000000	          0.00000000	          0.00000000	          0.00000000	          0.00000000	          0.00000000	
          2.04050000	         34.93465900	        455.56599000	        -73.06973400	         -0.25726700	          0.00600000	         -0.42693700	          0.00000000	         -6.95760300	          0.00000000	          8.86600200	        483.80201200	         77.02156500	         -0.24165800	          0.00600000	         -0.74509600	          0.00000000	          7.18338800	          0.00000000	          0.00000000	          0.00000000	          0.00000000	          0.00000000	          0.00000000	          0.00000000	          0.00000000	          0.00000000	          0.00000000	
